<svg width="39" height="39" viewBox="0 0 39 39" fill="none" xmlns="http://www.w3.org/2000/svg">
    <path d="M32.4955 37.1719H6.50447C5.91399 37.1719 5.4082 36.7484 5.30461 36.1676L2.4375 20.1094H36.5625L33.6948 36.1676C33.5912 36.7484 33.0854 37.1719 32.4955 37.1719H32.4955Z" fill="#72CAAF"/>
    <path d="M32.8459 23.1562H6.15408C4.34728 23.1562 2.79155 21.8808 2.4375 20.1094H36.5625C36.2085 21.8808 34.6527 23.1562 32.8459 23.1562H32.8459Z" fill="#5DBC9D"/>
    <path d="M37.1719 20.1094H1.82812C1.15477 20.1094 0.609375 19.564 0.609375 18.8906V15.2344C0.609375 14.561 1.15477 14.0156 1.82812 14.0156H37.1719C37.8452 14.0156 38.3906 14.561 38.3906 15.2344V18.8906C38.3906 19.564 37.8452 20.1094 37.1719 20.1094Z" fill="#F9DD8F"/>
    <path d="M35.3438 17.0625H3.65625C1.97377 17.0625 0.609375 15.6981 0.609375 14.0156H38.3906C38.3906 15.6981 37.0262 17.0625 35.3438 17.0625Z" fill="#F9E3AE"/>
    <path d="M24.9844 4.26562H14.0156C13.3423 4.26562 12.7969 3.72023 12.7969 3.04688C12.7969 2.37352 13.3423 1.82812 14.0156 1.82812H24.9844C25.6577 1.82812 26.2031 2.37352 26.2031 3.04688C26.2031 3.72023 25.6577 4.26562 24.9844 4.26562Z" fill="#72CAAF"/>
    <path d="M37.1719 13.4062H36.4242L34.5881 6.52641C34.2286 5.19797 33.022 4.26562 31.6448 4.26562H29.4877C29.0977 4.26562 28.7259 4.14375 28.4091 3.91219L26.782 2.71172C26.6236 1.86469 25.8741 1.21875 24.9844 1.21875H14.0156C13.1259 1.21875 12.3764 1.86469 12.218 2.71781L10.6458 3.9C10.3289 4.13766 9.93891 4.26562 9.54891 4.26562H7.35516C5.97797 4.26562 4.77141 5.19797 4.41188 6.52641L2.57583 13.4063H1.82812C0.82022 13.4063 0 14.2265 0 15.2344V18.8906C0 19.8985 0.82022 20.7188 1.82812 20.7188H1.92745L4.70499 36.2743C4.86099 37.1475 5.61783 37.7812 6.50447 37.7812H32.4949C33.3816 37.7812 34.1384 37.1475 34.2944 36.2743L37.0725 20.7188H37.1719C38.1798 20.7188 39 19.8985 39 18.8906V15.2344C39 14.2265 38.1798 13.4063 37.1719 13.4063V13.4062ZM24.9844 2.4375C25.3195 2.4375 25.5938 2.71172 25.5938 3.04687C25.5938 3.38203 25.3195 3.65625 24.9844 3.65625H14.0156C13.6805 3.65625 13.4062 3.38203 13.4062 3.04687C13.4062 2.71172 13.6805 2.4375 14.0156 2.4375H24.9844ZM5.58797 6.84328C5.80125 6.045 6.5325 5.48437 7.35516 5.48437H9.54891C10.2009 5.48437 10.853 5.27109 11.377 4.875L12.48 4.04625C12.8152 4.54594 13.3758 4.875 14.0156 4.875H24.9844C25.6242 4.875 26.1909 4.53984 26.52 4.04015L27.6839 4.89328C28.2141 5.27719 28.8356 5.48437 29.4877 5.48437H31.6448C32.4675 5.48437 33.1987 6.045 33.412 6.84328L35.1579 13.4062H3.84211L5.58797 6.84328ZM33.0952 36.0604C33.0434 36.351 32.7911 36.5625 32.4955 36.5625H6.50447C6.20892 36.5625 5.95664 36.351 5.90484 36.0604L3.1651 20.7187H35.8343L33.0952 36.0604ZM37.7812 18.8906C37.7812 19.2264 37.5076 19.5 37.1719 19.5H1.82812C1.49236 19.5 1.21875 19.2264 1.21875 18.8906V15.2344C1.21875 14.8986 1.49236 14.625 1.82812 14.625H37.1719C37.5076 14.625 37.7812 14.8986 37.7812 15.2344V18.8906Z" fill="#8D6C9F"/>
    <path d="M4.26562 15.8438C3.92925 15.8438 3.65625 16.1168 3.65625 16.4531V17.6719C3.65625 18.0082 3.92925 18.2812 4.26562 18.2812C4.602 18.2812 4.875 18.0082 4.875 17.6719V16.4531C4.875 16.1168 4.602 15.8438 4.26562 15.8438ZM7.3125 15.8438C6.97613 15.8438 6.70312 16.1168 6.70312 16.4531V17.6719C6.70312 18.0082 6.97613 18.2812 7.3125 18.2812C7.64887 18.2812 7.92188 18.0082 7.92188 17.6719V16.4531C7.92188 16.1168 7.64887 15.8438 7.3125 15.8438ZM10.3594 15.8438C10.023 15.8438 9.75 16.1168 9.75 16.4531V17.6719C9.75 18.0082 10.023 18.2812 10.3594 18.2812C10.6958 18.2812 10.9688 18.0082 10.9688 17.6719V16.4531C10.9688 16.1168 10.6958 15.8438 10.3594 15.8438ZM13.4062 15.8438C13.0699 15.8438 12.7969 16.1168 12.7969 16.4531V17.6719C12.7969 18.0082 13.0699 18.2812 13.4062 18.2812C13.7426 18.2812 14.0156 18.0082 14.0156 17.6719V16.4531C14.0156 16.1168 13.7426 15.8438 13.4062 15.8438ZM16.4531 15.8438C16.1167 15.8438 15.8438 16.1168 15.8438 16.4531V17.6719C15.8438 18.0082 16.1167 18.2812 16.4531 18.2812C16.7895 18.2812 17.0625 18.0082 17.0625 17.6719V16.4531C17.0625 16.1168 16.7895 15.8438 16.4531 15.8438ZM19.5 15.8438C19.1636 15.8438 18.8906 16.1168 18.8906 16.4531V17.6719C18.8906 18.0082 19.1636 18.2812 19.5 18.2812C19.8364 18.2812 20.1094 18.0082 20.1094 17.6719V16.4531C20.1094 16.1168 19.8364 15.8438 19.5 15.8438ZM22.5469 15.8438C22.2105 15.8438 21.9375 16.1168 21.9375 16.4531V17.6719C21.9375 18.0082 22.2105 18.2812 22.5469 18.2812C22.8833 18.2812 23.1562 18.0082 23.1562 17.6719V16.4531C23.1562 16.1168 22.8833 15.8438 22.5469 15.8438ZM25.5938 15.8438C25.2574 15.8438 24.9844 16.1168 24.9844 16.4531V17.6719C24.9844 18.0082 25.2574 18.2812 25.5938 18.2812C25.9301 18.2812 26.2031 18.0082 26.2031 17.6719V16.4531C26.2031 16.1168 25.9301 15.8438 25.5938 15.8438ZM28.6406 15.8438C28.3043 15.8438 28.0312 16.1168 28.0312 16.4531V17.6719C28.0312 18.0082 28.3043 18.2812 28.6406 18.2812C28.977 18.2812 29.25 18.0082 29.25 17.6719V16.4531C29.25 16.1168 28.977 15.8438 28.6406 15.8438ZM31.6875 15.8438C31.3511 15.8438 31.0781 16.1168 31.0781 16.4531V17.6719C31.0781 18.0082 31.3511 18.2812 31.6875 18.2812C32.0239 18.2812 32.2969 18.0082 32.2969 17.6719V16.4531C32.2969 16.1168 32.0239 15.8438 31.6875 15.8438ZM34.7344 15.8438C34.398 15.8438 34.125 16.1168 34.125 16.4531V17.6719C34.125 18.0082 34.398 18.2812 34.7344 18.2812C35.0708 18.2812 35.3438 18.0082 35.3438 17.6719V16.4531C35.3438 16.1168 35.0708 15.8438 34.7344 15.8438ZM17.0619 34.125C17.0747 34.125 17.0875 34.125 17.1003 34.1238C17.436 34.1025 17.6914 33.8136 17.6707 33.4772L17.0613 23.7272C17.0406 23.3915 16.7572 23.1319 16.4147 23.1569C16.079 23.1782 15.8236 23.467 15.8444 23.8034L16.4537 33.5534C16.4745 33.8764 16.7426 34.125 17.0619 34.125H17.0619ZM22.5085 34.1238C22.5219 34.125 22.5347 34.125 22.5475 34.125C22.8668 34.125 23.1349 33.8764 23.155 33.5534L23.7644 23.8034C23.7857 23.4676 23.5304 23.1782 23.194 23.1569C22.8595 23.1331 22.5688 23.3915 22.5475 23.7272L21.9381 33.4772C21.9174 33.8136 22.1727 34.1025 22.5085 34.1238ZM10.9681 34.125C10.9937 34.125 11.0187 34.1238 11.0443 34.1201C11.3782 34.0787 11.6153 33.774 11.5733 33.4401L10.3545 23.6901C10.3131 23.3561 10.0059 23.1179 9.67444 23.1611C9.3405 23.2026 9.10345 23.5073 9.1455 23.8412L10.3643 33.5912C10.4026 33.8995 10.6653 34.125 10.9681 34.125ZM28.5651 34.1201C28.5907 34.1238 28.6163 34.125 28.6412 34.125C28.9441 34.125 29.2067 33.8995 29.2451 33.5912L30.4639 23.8412C30.5053 23.5073 30.2689 23.2026 29.9349 23.1611C29.6028 23.1179 29.2963 23.3561 29.2549 23.6901L28.0361 33.4401C27.9941 33.774 28.2311 34.0787 28.5651 34.1201Z" fill="#8D6C9F"/>
</svg>
