<svg width="64" height="64" viewBox="0 0 64 64" fill="none" xmlns="http://www.w3.org/2000/svg">
    <g clip-path="url(#clip0)">
        <path d="M34.14 14.86L19.22 15L26.75 7.47L34.14 14.86Z" fill="#85CBF8"/>
        <path d="M50.78 14.78L27.22 15L39.11 3.11L50.78 14.78Z" fill="#FAEFDE"/>
        <path d="M54 47H13L10 19H60L54 47Z" fill="#C2CDE7"/>
        <path d="M10 15H62V19H10V15Z" fill="#F9E3AE"/>
        <path d="M3 3C1.89543 3 1 3.89543 1 5C1 6.10457 1.89543 7 3 7C4.10457 7 5 6.10457 5 5C5 3.89543 4.10457 3 3 3Z" fill="#F283A5"/>
        <path d="M25 51C22.7909 51 21 52.7909 21 55C21 57.2091 22.7909 59 25 59C27.2091 59 29 57.2091 29 55C29 52.7909 27.2091 51 25 51Z" fill="#ED7899"/>
        <path d="M25 53C23.8954 53 23 53.8954 23 55C23 56.1046 23.8954 57 25 57C26.1046 57 27 56.1046 27 55C27 53.8954 26.1046 53 25 53Z" fill="#F283A5"/>
        <path d="M45 51C42.7909 51 41 52.7909 41 55C41 57.2091 42.7909 59 45 59C47.2091 59 49 57.2091 49 55C49 52.7909 47.2091 51 45 51Z" fill="#ED7899"/>
        <path d="M22 47H12L10 19H21L22 47Z" fill="#CED8ED"/>
        <path d="M10 19V21C10 22.6569 11.3431 24 13 24H44L42 47H54L60 19H10Z" fill="#B5C4E0"/>
        <path d="M45 53C43.8954 53 43 53.8954 43 55C43 56.1046 43.8954 57 45 57C46.1046 57 47 56.1046 47 55C47 53.8954 46.1046 53 45 53Z" fill="#F283A5"/>
        <path d="M14 26C14.5523 26 15 25.5523 15 25V23C15 22.4477 14.5523 22 14 22C13.4477 22 13 22.4477 13 23V25C13 25.5523 13.4477 26 14 26ZM19 26C19.5523 26 20 25.5523 20 25V23C20 22.4477 19.5523 22 19 22C18.4477 22 18 22.4477 18 23V25C18 25.5523 18.4477 26 19 26ZM24 26C24.5523 26 25 25.5523 25 25V23C25 22.4477 24.5523 22 24 22C23.4477 22 23 22.4477 23 23V25C23 25.5523 23.4477 26 24 26ZM29 26C29.5523 26 30 25.5523 30 25V23C30 22.4477 29.5523 22 29 22C28.4477 22 28 22.4477 28 23V25C28 25.5523 28.4477 26 29 26ZM34 26C34.5523 26 35 25.5523 35 25V23C35 22.4477 34.5523 22 34 22C33.4477 22 33 22.4477 33 23V25C33 25.5523 33.4477 26 34 26ZM39 26C39.5523 26 40 25.5523 40 25V23C40 22.4477 39.5523 22 39 22C38.4477 22 38 22.4477 38 23V25C38 25.5523 38.4477 26 39 26ZM44 26C44.5523 26 45 25.5523 45 25V23C45 22.4477 44.5523 22 44 22C43.4477 22 43 22.4477 43 23V25C43 25.5523 43.4477 26 44 26ZM49 26C49.5523 26 50 25.5523 50 25V23C50 22.4477 49.5523 22 49 22C48.4477 22 48 22.4477 48 23V25C48 25.5523 48.4477 26 49 26ZM54 26C54.5523 26 55 25.5523 55 25V23C55 22.4477 54.5523 22 54 22C53.4477 22 53 22.4477 53 23V25C53 25.5523 53.4477 26 54 26ZM47 44H51C51.5523 44 52 43.5523 52 43C52 42.4477 51.5523 42 51 42H47C46.4477 42 46 42.4477 46 43C46 43.5523 46.4477 44 47 44ZM14 43C14 43.5523 14.4477 44 15 44H43C43.5523 44 44 43.5523 44 43C44 42.4477 43.5523 42 43 42H15C14.4477 42 14 42.4477 14 43Z" fill="#8D6C9F"/>
        <path d="M61 14H51.41L40.41 3C40.0349 2.62445 39.5258 2.41343 38.995 2.41343C38.4642 2.41343 37.9551 2.62444 37.58 3L31 9.59L28.41 7C28.0349 6.62445 27.5258 6.41343 26.995 6.41343C26.4642 6.41343 25.9551 6.62445 25.58 7L18.58 14H10.72L10.44 10.45C10.2301 7.7498 8.48136 5.41299 5.95 4.45C5.71358 3.0116 4.47739 1.95132 3.01976 1.93673C1.56212 1.92213 0.304959 2.95745 0.0397833 4.39084C-0.225393 5.82422 0.578176 7.24077 1.94456 7.74863C3.31094 8.25648 4.84463 7.70862 5.58001 6.45C7.19714 7.20782 8.2873 8.77064 8.44001 10.55L11.23 45.81C11.6451 50.7171 15.2519 54.7599 20.08 55.73C20.4638 58.1001 22.4782 59.8628 24.8783 59.9288C27.2784 59.9947 29.3865 58.3454 29.9 56H40.1C40.6134 58.515 42.9477 60.2327 45.5015 59.9747C48.0554 59.7167 49.999 57.5668 49.999 55C49.999 52.4332 48.0554 50.2833 45.5015 50.0253C42.9477 49.7673 40.6134 51.485 40.1 54H29.9C29.4179 51.7394 27.4492 50.1039 25.1385 50.0445C22.8279 49.9851 20.7777 51.5172 20.18 53.75C17.1944 53.0461 14.7652 50.8839 13.72 48H52.38C53.7929 47.9985 55.0133 47.0114 55.31 45.63L60.81 20H61C62.6569 20 64 18.6569 64 17C64 15.3431 62.6569 14 61 14ZM3 6.17C2.35383 6.17 1.83 5.64618 1.83 5C1.83 4.35383 2.35383 3.83001 3.00001 3.83001C3.64618 3.83001 4.17001 4.35383 4.17001 5.00001C4.17001 5.64618 3.64618 6.17001 3.00001 6.17001L3 6.17ZM45 51.79C46.7728 51.79 48.21 53.2272 48.21 55C48.21 56.7728 46.7728 58.21 45 58.21C43.2272 58.21 41.79 56.7728 41.79 55C41.79 53.2272 43.2272 51.79 45 51.79V51.79ZM25 51.79C26.3181 51.7901 27.5056 52.5863 28.0062 53.8057C28.5068 55.0251 28.2214 56.426 27.2836 57.3523C26.3458 58.2785 24.9414 58.5466 23.7283 58.031C22.5152 57.5153 21.7338 56.318 21.75 55C21.75 53.2051 23.2051 51.75 25 51.75L25 51.79ZM39 4.41L48.59 14H29.41L39 4.41ZM27 8.41L29.59 11L26.59 14H21.41L27 8.41ZM53.36 45.21C53.2594 45.6791 52.8397 46.0107 52.36 46H13.26C13.26 45.9 13.26 45.81 13.26 45.71L11.19 20H58.76L53.36 45.21ZM61 18H11L10.84 16H61C61.5523 16 62 16.4477 62 17C62 17.5523 61.5523 18 61 18Z" fill="#8D6C9F"/>
    </g>
    <defs>
        <clipPath id="clip0">
            <rect width="64" height="64" fill="white"/>
        </clipPath>
    </defs>
</svg>
